<svg xmlns="http://www.w3.org/2000/svg" width="51.969" height="51.969" viewBox="5.197 5.197 51.969 51.969"><path d="M43.109 19.696 25.985 36.82l-9.329-9.302-3.664 3.664 12.993 12.992 20.787-20.788-3.663-3.69Zm-11.927-14.5c-14.344 0-25.985 11.642-25.985 25.986 0 14.343 11.641 25.984 25.985 25.984 14.343 0 25.984-11.64 25.984-25.984 0-14.344-11.64-25.985-25.984-25.985Zm0 46.773c-11.486 0-20.788-9.302-20.788-20.787 0-11.486 9.302-20.788 20.788-20.788 11.485 0 20.787 9.302 20.787 20.788 0 11.485-9.302 20.787-20.787 20.787Z" fill="#4ecdc4" fill-rule="evenodd" data-name="Path 2993"/></svg>