<svg xmlns="http://www.w3.org/2000/svg" width="225.158" height="46.895" viewBox="28.184 11.658 225.158 46.895"><g data-name="logo"><g data-name="Group 374" transform="translate(32.526 16)" clip-path="url(&quot;#a&quot;)"><g data-name="Group 373" transform="translate(-62.526 -.633)" clip-path="url(&quot;#b&quot;)"><path d="M58.184-3.709h48.632v46.895H58.184V-3.71Z" fill="#fff" fill-rule="evenodd" data-name="Path 304"/></g></g><g data-name="Group 372" transform="translate(230.763 26.473)" clip-path="url(&quot;#c&quot;)"><g data-name="Group 371" transform="translate(-146.763 -52.105)" clip-path="url(&quot;#d&quot;)"><path d="M142.421 47.763h26.921v26.053h-26.92V47.763Z" fill="#fff" fill-rule="evenodd" data-name="Path 301"/></g></g><g data-name="Group 370" transform="translate(202.105 25.604)" clip-path="url(&quot;#e&quot;)"><g data-name="Group 369" transform="translate(-118.105 -51.237)" clip-path="url(&quot;#f&quot;)"><path d="M113.763 46.895h26.921v26.052h-26.92V46.895Z" fill="#fff" fill-rule="evenodd" data-name="Path 298"/></g></g><g data-name="Group 368" transform="translate(173.447 25.604)" clip-path="url(&quot;#g&quot;)"><g data-name="Group 367" transform="translate(-89.447 -51.237)" clip-path="url(&quot;#h&quot;)"><path d="M85.105 46.895h26.053v26.052H85.105V46.895Z" fill="#fff" fill-rule="evenodd" data-name="Path 295"/></g></g><g data-name="Group 366" transform="translate(140.447 25.604)" clip-path="url(&quot;#i&quot;)"><g data-name="Group 365" transform="translate(-56.447 -51.237)" clip-path="url(&quot;#j&quot;)"><path d="M52.105 46.895h31.263v26.92H52.105v-26.92Z" fill="#fff" fill-rule="evenodd" data-name="Path 292"/></g></g><g data-name="Group 364" transform="translate(112.658 25.604)" clip-path="url(&quot;#k&quot;)"><g data-name="Group 363" transform="translate(-28.658 -51.237)" clip-path="url(&quot;#l&quot;)"><path d="M24.316 46.895h26.052v26.052H24.316V46.895Z" fill="#fff" fill-rule="evenodd" data-name="Path 289"/></g></g><g data-name="Group 362" transform="translate(84 25.604)" clip-path="url(&quot;#m&quot;)"><g data-name="Group 361" transform="translate(0 -51.237)" clip-path="url(&quot;#n&quot;)"><path d="M-4.342 46.895H21.71v26.052H-4.342V46.895Z" fill="#fff" fill-rule="evenodd" data-name="Path 286"/></g></g></g><defs><clipPath id="n"><path d="M625-1257.526h165V-1327H625v69.474Z" data-name="Path 287" transform="translate(-625 1327)"/></clipPath><clipPath id="m"><path d="M641.533-1267.116c-.315-.322-.63-.536-.945-.644-.42-.216-.84-.216-1.262-.217l-11.143-.023c-.421-.001-.842.105-1.262.212-.42.213-.737.426-.948.64-.316.32-.526.64-.632.962-.212.428-.213.856-.213 1.284l-.008 3.748c0 .428.104.856.208 1.286.21.428.418.75.629.963.314.323.63.538 1.05.753.42.215.84.215 1.26.216l10.934.023c.105 0 .21 0 .315.108.105.107.105.214.104.32l-.007 3.749c0 .107 0 .214-.105.32-.106.108-.21.108-.317.108l-11.038-.024c-.105 0-.21 0-.314-.108-.106-.107-.106-.214-.106-.321l.001-.642c.001-.215-.209-.43-.42-.43l-1.891-.003c-.21-.001-.42.213-.422.427l-.001.642c-.001.429.104.857.208 1.286.21.428.419.75.629.964.314.322.63.537.945.645.42.214.84.216 1.26.217l11.144.023c.42 0 .841-.106 1.263-.212.42-.212.736-.427.947-.64.315-.32.527-.641.633-.963.21-.428.211-.856.212-1.284l.008-3.747c0-.428-.104-.857-.208-1.285-.209-.429-.419-.75-.628-.965a3.746 3.746 0 0 0-1.05-.751c-.42-.216-.842-.217-1.262-.218l-10.932-.022c-.107 0-.212 0-.316-.108-.105-.108-.105-.215-.105-.322l.008-3.747c0-.107 0-.214.106-.322.105-.106.21-.105.315-.105l11.039.022c.105.001.21.001.315.109.105.106.105.213.105.32l-.002.643c0 .214.21.43.42.43l1.893.004c.21 0 .42-.214.42-.427l.001-.643c.001-.428-.103-.858-.207-1.286l-.628-.965" data-name="Path 288" transform="translate(-625 1268)"/></clipPath><clipPath id="l"><path d="M625-1257.526h165V-1327H625v69.474Z" data-name="Path 290" transform="translate(-625 1327)"/></clipPath><clipPath id="k"><path d="M660.683-1264.809c0-.106 0-.212.107-.32.107-.104.213-.104.32-.104l11.173.023c.107 0 .213 0 .32.106.105.107.105.213.105.32l-.023 11.173c0 .108 0 .213-.107.32-.106.105-.213.105-.32.104l-11.174-.022c-.105 0-.212-.001-.318-.108-.107-.106-.107-.213-.106-.318l.023-11.174Zm13.945-2.312c-.318-.32-.638-.534-.956-.641-.426-.214-.851-.215-1.277-.215l-11.28-.023c-.426-.001-.851.104-1.277.21-.427.212-.746.424-.959.637-.32.319-.534.637-.64.956-.214.425-.216.85-.217 1.276l-.022 11.173c-.001.426.104.852.21 1.278.212.426.424.746.636.96.32.318.639.533.957.64.425.213.851.214 1.277.215l11.174.023c.424 0 .85-.105 1.277-.21.426-.212.746-.424.958-.636.32-.32.535-.638.641-.957.214-.425.215-.85.216-1.276l.022-11.068c.002-.426-.104-.85-.21-1.277-.106-.425-.317-.746-.53-1.065Z" data-name="Path 291" transform="translate(-658 1268)"/></clipPath><clipPath id="j"><path d="M625-1257.526h165V-1327H625v69.474Z" data-name="Path 293" transform="translate(-625 1327)"/></clipPath><clipPath id="i"><path d="m712.176-1267.845-2.264-.004c-.107 0-.323.109-.323.219l-8.329 14.793-8.268-14.938c-.108-.11-.216-.22-.324-.22l-2.263-.005c-.108 0-.323.11-.323.22-.109.11-.109.329-.001.438 1.61 2.966 3.221 5.821 4.831 8.677a867.84 867.84 0 0 0 4.94 8.678c.108.11.216.22.324.22l2.263.004c.108 0 .324-.109.324-.218.865-1.535 1.73-2.96 2.488-4.383.865-1.424 1.622-2.85 2.38-4.274l2.38-4.274c.864-1.424 1.622-2.85 2.487-4.384.108-.108.108-.328.001-.437 0-.112-.108-.112-.323-.112" data-name="Path 294" transform="translate(-690 1268)"/></clipPath><clipPath id="h"><path d="M625-1257.526h165V-1327H625v69.474Z" data-name="Path 296" transform="translate(-625 1327)"/></clipPath><clipPath id="g"><path d="M730.778-1264.838c0-.106 0-.211.106-.316.106-.105.212-.105.318-.105l11.101.024c.106 0 .212 0 .317.105.105.105.105.21.105.315l-.01 4.842c0 .105 0 .21-.106.316-.106.105-.212.104-.317.104l-11.102-.022c-.106-.001-.212-.001-.317-.106-.106-.105-.106-.211-.105-.317l.01-4.84Zm13.855-2.183a3.797 3.797 0 0 0-1.056-.738c-.423-.211-.845-.212-1.268-.213l-13.851-.028a.454.454 0 0 0-.424.42l-.034 16.523c0 .21.21.421.422.422l1.903.003c.211.001.424-.209.424-.42l.012-5.788h.423l5.92.013 5.063 6.009c.107.106.212.106.317.107l2.433.004c.106 0 .317-.104.317-.21.106-.105 0-.316-.105-.42l-4.64-5.483 1.69.004c.425 0 .846-.104 1.27-.208.423-.21.742-.42 1.059-.735.318-.316.53-.63.636-.945.213-.422.214-.843.215-1.264l.01-4.842c0-.42-.104-.84-.209-1.262 0-.421-.21-.737-.527-.949Z" data-name="Path 297" transform="translate(-728 1268)"/></clipPath><clipPath id="f"><path d="M625-1257.526h165V-1327H625v69.474Z" data-name="Path 299" transform="translate(-625 1327)"/></clipPath><clipPath id="e"><path d="m778.73-1267.965-2.247-.004c-.107-.001-.214.104-.32.104-1.072 1.26-2.145 2.624-3.218 3.989-.966 1.26-2.037 2.52-2.895 3.674l-6.188-7.689c-.107-.105-.214-.105-.32-.105l-2.14-.004c-.107-.001-.32.104-.32.21a.314.314 0 0 0-.002.42c1.28 1.684 2.56 3.475 3.84 5.16 1.28 1.685 2.56 3.37 3.733 5.055l-.013 6.099c-.001.21.213.42.427.42l1.925.004c.214 0 .429-.209.429-.419l.013-6.099 7.722-10.183c.107-.105.108-.316.001-.421-.107-.211-.32-.211-.428-.211" data-name="Path 300" transform="translate(-761 1268)"/></clipPath><clipPath id="d"><path d="M625-1257.526h165V-1327H625v69.474Z" data-name="Path 302" transform="translate(-625 1327)"/></clipPath><clipPath id="c"><path d="m811.8-1266.997-1.974-.003c-.22-.001-.44.208-.44.418l-.029 13.31-11.923-13.544c-.108-.104-.218-.104-.328-.104l-2.631-.007c-.22 0-.44.21-.44.42l-.035 16.452c-.001.21.218.419.438.419l1.973.004c.22.001.439-.208.44-.417l.028-13.414 11.924 13.541c.108.106.218.106.327.106l2.632.005c.22 0 .44-.208.44-.418l.035-16.452c.001-.21-.218-.316-.438-.316" data-name="Path 303" transform="translate(-794 1267)"/></clipPath><clipPath id="b"><path d="M625-1257.526h165V-1327H625v69.474Z" data-name="Path 305" transform="translate(-625 1327)"/></clipPath><clipPath id="a"><path d="m719.573-1302.371-1.891 2.676 3.312 4.83.45-.892 15.503-30.432-17.374 23.818Zm-1.871-6.883-6.553-.013 4.834 6.62a.938.938 0 0 0 1.436.003l2.16-2.944.81-1.07c.09-.09.09-.179.18-.268.544-2.143.908-4.287-1.426-4.827.09.268.18.537.178.805.088.982-.632 1.696-1.62 1.694ZM697-1326.271l19.043 37.74a.93.93 0 0 0 1.616.003l2.614-5.086-3.4-5.1L697-1326.27Zm24.29 18.542 7.29-9.811-11.939-.025c-.897-.002-1.703-.718-1.701-1.701-4.311.974-5.303 3.116-6.028 6.599l8.797.018h.18c4.578.189 4.662 2.422 3.4 4.92Zm-12.648-4.94c.189-4.465 1.812-7.678 7.737-8.202h.27l14.363.03 2.34-3.212a.892.892 0 0 0-.715-1.43l-31.689-.065c-.717-.001-1.168.89-.72 1.428l8.414 11.452Z" data-name="Path 306" transform="translate(-697 1326.271)"/></clipPath></defs></svg>