<svg xmlns="http://www.w3.org/2000/svg" width="23.061" height="24" viewBox="0.837 0.137 23.061 24"><path d="M8.876 15.01a6.175 6.175 0 0 0-.138-.653c-.417-1.493-.766-2.125-.617-3.69.195-1.065.184-3.2 3.012-2.868.747.088 1.91.623 2.576.611.38-.006.658-.777.683-1.034.034-.353-.581-.954-.839-1.044a63.386 63.386 0 0 0-1.8-.553c-.699-.202-.662-1.146-.707-1.481a.401.401 0 0 1 .198-.398c.14-.083.252-.005.389.084l.594.436c.334.286-.587.833-.338.924 0 0 1.18.443 1.685.535.276.05 1.232-1.027 1.287-1.66.044-.497-2.282-2.742-3.941-3.614C10.337.298 9.995.12 9.61.138 9.153.16 9.008.341 8.437.83c-2.584 2.211-5.093 6.992-5.46 8.05-1.51 4.341-1.745 6.628-1.8 7.92-.032.396-.05.79-.05 1.18.043 0-.672 3.36 0 4.032.672.671 3.578.671 3.578.671 6.718 2.68 19.193 1.98 19.193-4.859 0-8.177-12.638-7.092-15.02-2.813Z" fill="#ffdc5d" fill-rule="evenodd" data-name="Path 2998"/></svg>